<svg xmlns="http://www.w3.org/2000/svg" xmlns:xlink="http://www.w3.org/1999/xlink" width="188" zoomAndPan="magnify" viewBox="0 0 141.75 33.749999" height="45" preserveAspectRatio="xMidYMid meet" version="1.0"><defs><g/></defs><g fill="#06efee" fill-opacity="1"><g transform="translate(1.46408, 28.264349)"><g><path d="M 22.15625 -15.359375 C 23.820312 -15.359375 25.144531 -14.828125 26.125 -13.765625 C 27.101562 -12.710938 27.59375 -11.304688 27.59375 -9.546875 L 27.59375 0 L 22.765625 0 L 22.765625 -8.203125 C 22.765625 -9.097656 22.53125 -9.800781 22.0625 -10.3125 C 21.601562 -10.832031 20.96875 -11.09375 20.15625 -11.09375 C 19.257812 -11.070312 18.546875 -10.726562 18.015625 -10.0625 C 17.484375 -9.394531 17.21875 -8.539062 17.21875 -7.5 L 17.21875 0 L 12.359375 0 L 12.359375 -8.203125 C 12.359375 -9.097656 12.128906 -9.800781 11.671875 -10.3125 C 11.210938 -10.832031 10.578125 -11.09375 9.765625 -11.09375 C 8.847656 -11.070312 8.117188 -10.722656 7.578125 -10.046875 C 7.035156 -9.378906 6.765625 -8.53125 6.765625 -7.5 L 6.765625 0 L 1.9375 0 L 1.9375 -15.140625 L 6.765625 -15.140625 L 6.765625 -12.640625 C 7.796875 -14.410156 9.460938 -15.316406 11.765625 -15.359375 C 12.984375 -15.359375 14.035156 -15.050781 14.921875 -14.4375 C 15.804688 -13.832031 16.4375 -13 16.8125 -11.9375 C 17.8125 -14.175781 19.59375 -15.316406 22.15625 -15.359375 Z M 22.15625 -15.359375 "/></g></g></g><g fill="#06efee" fill-opacity="1"><g transform="translate(30.562351, 28.264349)"><g><path d="M 2.53125 -21.328125 C 3.007812 -21.804688 3.625 -22.046875 4.375 -22.046875 C 5.125 -22.046875 5.738281 -21.804688 6.21875 -21.328125 C 6.695312 -20.847656 6.9375 -20.234375 6.9375 -19.484375 C 6.9375 -18.734375 6.695312 -18.113281 6.21875 -17.625 C 5.738281 -17.144531 5.125 -16.90625 4.375 -16.90625 C 3.625 -16.90625 3.007812 -17.144531 2.53125 -17.625 C 2.0625 -18.113281 1.828125 -18.734375 1.828125 -19.484375 C 1.828125 -20.234375 2.0625 -20.847656 2.53125 -21.328125 Z M 6.765625 0 L 1.9375 0 L 1.9375 -15.140625 L 6.765625 -15.140625 Z M 6.765625 0 "/></g></g></g><g fill="#06efee" fill-opacity="1"><g transform="translate(39.289029, 28.264349)"><g><path d="M 11.84375 -15.359375 C 13.507812 -15.359375 14.847656 -14.828125 15.859375 -13.765625 C 16.867188 -12.710938 17.375 -11.304688 17.375 -9.546875 L 17.375 0 L 12.546875 0 L 12.546875 -8.203125 C 12.546875 -9.078125 12.304688 -9.769531 11.828125 -10.28125 C 11.359375 -10.800781 10.710938 -11.0625 9.890625 -11.0625 C 9.023438 -11.0625 8.316406 -10.78125 7.765625 -10.21875 C 7.210938 -9.65625 6.890625 -8.914062 6.796875 -8 L 6.796875 0 L 1.9375 0 L 1.9375 -15.140625 L 6.796875 -15.140625 L 6.796875 -12.65625 C 7.859375 -14.414062 9.539062 -15.316406 11.84375 -15.359375 Z M 11.84375 -15.359375 "/></g></g></g><g fill="#06efee" fill-opacity="1"><g transform="translate(58.17345, 28.264349)"><g><path d="M 2.53125 -21.328125 C 3.007812 -21.804688 3.625 -22.046875 4.375 -22.046875 C 5.125 -22.046875 5.738281 -21.804688 6.21875 -21.328125 C 6.695312 -20.847656 6.9375 -20.234375 6.9375 -19.484375 C 6.9375 -18.734375 6.695312 -18.113281 6.21875 -17.625 C 5.738281 -17.144531 5.125 -16.90625 4.375 -16.90625 C 3.625 -16.90625 3.007812 -17.144531 2.53125 -17.625 C 2.0625 -18.113281 1.828125 -18.734375 1.828125 -19.484375 C 1.828125 -20.234375 2.0625 -20.847656 2.53125 -21.328125 Z M 6.765625 0 L 1.9375 0 L 1.9375 -15.140625 L 6.765625 -15.140625 Z M 6.765625 0 "/></g></g></g><g fill="#030f2c" fill-opacity="1"><g transform="translate(67.780017, 28.264349)"><g><path d="M 11.453125 -15.296875 C 13.585938 -15.296875 15.304688 -14.578125 16.609375 -13.140625 C 17.910156 -11.710938 18.5625 -9.832031 18.5625 -7.5 C 18.5625 -5.195312 17.921875 -3.34375 16.640625 -1.9375 C 15.367188 -0.53125 13.675781 0.171875 11.5625 0.171875 C 9.582031 0.171875 8.039062 -0.554688 6.9375 -2.015625 L 6.9375 0 L 2.078125 0 L 2.078125 -20.828125 L 6.9375 -20.828125 L 6.9375 -13.140625 C 8.0625 -14.578125 9.566406 -15.296875 11.453125 -15.296875 Z M 10.28125 -3.671875 C 11.289062 -3.671875 12.109375 -4.039062 12.734375 -4.78125 C 13.359375 -5.519531 13.671875 -6.46875 13.671875 -7.625 C 13.671875 -8.789062 13.359375 -9.738281 12.734375 -10.46875 C 12.109375 -11.195312 11.289062 -11.5625 10.28125 -11.5625 C 9.300781 -11.5625 8.5 -11.195312 7.875 -10.46875 C 7.25 -9.738281 6.9375 -8.796875 6.9375 -7.640625 C 6.9375 -6.460938 7.242188 -5.503906 7.859375 -4.765625 C 8.472656 -4.035156 9.28125 -3.671875 10.28125 -3.671875 Z M 10.28125 -3.671875 "/></g></g></g><g fill="#030f2c" fill-opacity="1"><g transform="translate(87.001156, 28.264349)"><g><path d="M 8.953125 -15.296875 C 11.421875 -15.296875 13.414062 -14.585938 14.9375 -13.171875 C 16.457031 -11.765625 17.21875 -9.898438 17.21875 -7.578125 C 17.21875 -5.253906 16.457031 -3.378906 14.9375 -1.953125 C 13.414062 -0.535156 11.421875 0.171875 8.953125 0.171875 C 6.460938 0.171875 4.457031 -0.535156 2.9375 -1.953125 C 1.425781 -3.378906 0.671875 -5.253906 0.671875 -7.578125 C 0.671875 -9.898438 1.425781 -11.765625 2.9375 -13.171875 C 4.457031 -14.585938 6.460938 -15.296875 8.953125 -15.296875 Z M 8.953125 -11.453125 C 7.941406 -11.453125 7.125 -11.085938 6.5 -10.359375 C 5.875 -9.628906 5.5625 -8.6875 5.5625 -7.53125 C 5.5625 -6.34375 5.875 -5.390625 6.5 -4.671875 C 7.125 -3.953125 7.941406 -3.59375 8.953125 -3.59375 C 9.941406 -3.59375 10.75 -3.953125 11.375 -4.671875 C 12.007812 -5.390625 12.328125 -6.34375 12.328125 -7.53125 C 12.328125 -8.6875 12.007812 -9.628906 11.375 -10.359375 C 10.75 -11.085938 9.941406 -11.453125 8.953125 -11.453125 Z M 8.953125 -11.453125 "/></g></g></g><g fill="#030f2c" fill-opacity="1"><g transform="translate(104.87541, 28.264349)"><g><path d="M 8.53125 -10.78125 L 11.234375 -15.140625 L 16.53125 -15.140625 L 11.734375 -7.78125 L 16.875 0 L 11.28125 0 L 8.53125 -4.75 L 5.453125 0 L 0.109375 0 L 5.28125 -7.75 L 0.453125 -15.140625 L 6.015625 -15.140625 Z M 8.53125 -10.78125 "/></g></g></g><g fill="#030f2c" fill-opacity="1"><g transform="translate(121.879795, 28.264349)"><g><path d="M 8.53125 -10.78125 L 11.234375 -15.140625 L 16.53125 -15.140625 L 11.734375 -7.78125 L 16.875 0 L 11.28125 0 L 8.53125 -4.75 L 5.453125 0 L 0.109375 0 L 5.28125 -7.75 L 0.453125 -15.140625 L 6.015625 -15.140625 Z M 8.53125 -10.78125 "/></g></g></g></svg>