<svg xmlns="http://www.w3.org/2000/svg" xmlns:xlink="http://www.w3.org/1999/xlink" width="200" zoomAndPan="magnify" viewBox="0 0 150 52.499999" height="70" preserveAspectRatio="xMidYMid meet" version="1.0"><defs><g/></defs><g fill="#06efee" fill-opacity="1"><g transform="translate(4.00156, 37.853756)"><g><path d="M 23.0625 -15.984375 C 24.800781 -15.984375 26.179688 -15.429688 27.203125 -14.328125 C 28.222656 -13.234375 28.734375 -11.769531 28.734375 -9.9375 L 28.734375 0 L 23.703125 0 L 23.703125 -8.53125 C 23.703125 -9.46875 23.457031 -10.203125 22.96875 -10.734375 C 22.488281 -11.273438 21.828125 -11.546875 20.984375 -11.546875 C 20.054688 -11.523438 19.3125 -11.164062 18.75 -10.46875 C 18.195312 -9.78125 17.921875 -8.894531 17.921875 -7.8125 L 17.921875 0 L 12.859375 0 L 12.859375 -8.53125 C 12.859375 -9.46875 12.617188 -10.203125 12.140625 -10.734375 C 11.671875 -11.273438 11.015625 -11.546875 10.171875 -11.546875 C 9.210938 -11.523438 8.453125 -11.160156 7.890625 -10.453125 C 7.328125 -9.753906 7.046875 -8.875 7.046875 -7.8125 L 7.046875 0 L 2.015625 0 L 2.015625 -15.75 L 7.046875 -15.75 L 7.046875 -13.15625 C 8.117188 -15.007812 9.851562 -15.953125 12.25 -15.984375 C 13.519531 -15.984375 14.613281 -15.664062 15.53125 -15.03125 C 16.457031 -14.40625 17.117188 -13.535156 17.515625 -12.421875 C 18.546875 -14.765625 20.394531 -15.953125 23.0625 -15.984375 Z M 23.0625 -15.984375 "/></g></g></g><g fill="#06efee" fill-opacity="1"><g transform="translate(34.301097, 37.853756)"><g><path d="M 2.640625 -22.203125 C 3.140625 -22.703125 3.78125 -22.953125 4.5625 -22.953125 C 5.34375 -22.953125 5.976562 -22.703125 6.46875 -22.203125 C 6.96875 -21.703125 7.21875 -21.0625 7.21875 -20.28125 C 7.21875 -19.507812 6.96875 -18.867188 6.46875 -18.359375 C 5.976562 -17.847656 5.34375 -17.59375 4.5625 -17.59375 C 3.78125 -17.59375 3.140625 -17.847656 2.640625 -18.359375 C 2.148438 -18.867188 1.90625 -19.507812 1.90625 -20.28125 C 1.90625 -21.0625 2.148438 -21.703125 2.640625 -22.203125 Z M 7.046875 0 L 2.015625 0 L 2.015625 -15.75 L 7.046875 -15.75 Z M 7.046875 0 "/></g></g></g><g fill="#06efee" fill-opacity="1"><g transform="translate(43.388038, 37.853756)"><g><path d="M 12.34375 -15.984375 C 14.070312 -15.984375 15.460938 -15.429688 16.515625 -14.328125 C 17.566406 -13.234375 18.09375 -11.769531 18.09375 -9.9375 L 18.09375 0 L 13.0625 0 L 13.0625 -8.53125 C 13.0625 -9.445312 12.8125 -10.171875 12.3125 -10.703125 C 11.820312 -11.242188 11.148438 -11.515625 10.296875 -11.515625 C 9.398438 -11.515625 8.660156 -11.222656 8.078125 -10.640625 C 7.503906 -10.054688 7.171875 -9.285156 7.078125 -8.328125 L 7.078125 0 L 2.015625 0 L 2.015625 -15.75 L 7.078125 -15.75 L 7.078125 -13.1875 C 8.179688 -15.019531 9.9375 -15.953125 12.34375 -15.984375 Z M 12.34375 -15.984375 "/></g></g></g><g fill="#06efee" fill-opacity="1"><g transform="translate(63.052065, 37.853756)"><g><path d="M 2.640625 -22.203125 C 3.140625 -22.703125 3.78125 -22.953125 4.5625 -22.953125 C 5.34375 -22.953125 5.976562 -22.703125 6.46875 -22.203125 C 6.96875 -21.703125 7.21875 -21.0625 7.21875 -20.28125 C 7.21875 -19.507812 6.96875 -18.867188 6.46875 -18.359375 C 5.976562 -17.847656 5.34375 -17.59375 4.5625 -17.59375 C 3.78125 -17.59375 3.140625 -17.847656 2.640625 -18.359375 C 2.148438 -18.867188 1.90625 -19.507812 1.90625 -20.28125 C 1.90625 -21.0625 2.148438 -21.703125 2.640625 -22.203125 Z M 7.046875 0 L 2.015625 0 L 2.015625 -15.75 L 7.046875 -15.75 Z M 7.046875 0 "/></g></g></g><g fill="#ffffff" fill-opacity="1"><g transform="translate(70.898639, 37.853756)"><g><path d="M 11.921875 -15.9375 C 14.148438 -15.9375 15.941406 -15.1875 17.296875 -13.6875 C 18.648438 -12.195312 19.328125 -10.238281 19.328125 -7.8125 C 19.328125 -5.40625 18.660156 -3.472656 17.328125 -2.015625 C 16.003906 -0.554688 14.242188 0.171875 12.046875 0.171875 C 9.984375 0.171875 8.375 -0.585938 7.21875 -2.109375 L 7.21875 0 L 2.15625 0 L 2.15625 -21.6875 L 7.21875 -21.6875 L 7.21875 -13.6875 C 8.382812 -15.1875 9.953125 -15.9375 11.921875 -15.9375 Z M 10.703125 -3.828125 C 11.753906 -3.828125 12.601562 -4.210938 13.25 -4.984375 C 13.90625 -5.753906 14.234375 -6.742188 14.234375 -7.953125 C 14.234375 -9.160156 13.90625 -10.144531 13.25 -10.90625 C 12.601562 -11.664062 11.753906 -12.046875 10.703125 -12.046875 C 9.679688 -12.046875 8.84375 -11.664062 8.1875 -10.90625 C 7.539062 -10.144531 7.21875 -9.160156 7.21875 -7.953125 C 7.21875 -6.722656 7.539062 -5.726562 8.1875 -4.96875 C 8.832031 -4.207031 9.671875 -3.828125 10.703125 -3.828125 Z M 10.703125 -3.828125 "/></g></g></g><g fill="#ffffff" fill-opacity="1"><g transform="translate(90.913285, 37.853756)"><g><path d="M 9.328125 -15.9375 C 11.898438 -15.9375 13.972656 -15.195312 15.546875 -13.71875 C 17.128906 -12.25 17.921875 -10.304688 17.921875 -7.890625 C 17.921875 -5.472656 17.128906 -3.523438 15.546875 -2.046875 C 13.972656 -0.566406 11.898438 0.171875 9.328125 0.171875 C 6.734375 0.171875 4.644531 -0.566406 3.0625 -2.046875 C 1.488281 -3.523438 0.703125 -5.472656 0.703125 -7.890625 C 0.703125 -10.304688 1.488281 -12.25 3.0625 -13.71875 C 4.644531 -15.195312 6.734375 -15.9375 9.328125 -15.9375 Z M 9.328125 -11.921875 C 8.273438 -11.921875 7.421875 -11.539062 6.765625 -10.78125 C 6.109375 -10.019531 5.78125 -9.035156 5.78125 -7.828125 C 5.78125 -6.609375 6.109375 -5.617188 6.765625 -4.859375 C 7.421875 -4.109375 8.273438 -3.734375 9.328125 -3.734375 C 10.359375 -3.734375 11.195312 -4.109375 11.84375 -4.859375 C 12.5 -5.617188 12.828125 -6.609375 12.828125 -7.828125 C 12.828125 -9.035156 12.5 -10.019531 11.84375 -10.78125 C 11.195312 -11.539062 10.359375 -11.921875 9.328125 -11.921875 Z M 9.328125 -11.921875 "/></g></g></g><g fill="#ffffff" fill-opacity="1"><g transform="translate(109.525442, 37.853756)"><g><path d="M 8.890625 -11.21875 L 11.6875 -15.75 L 17.21875 -15.75 L 12.21875 -8.09375 L 17.5625 0 L 11.75 0 L 8.890625 -4.9375 L 5.671875 0 L 0.109375 0 L 5.5 -8.0625 L 0.46875 -15.75 L 6.25 -15.75 Z M 8.890625 -11.21875 "/></g></g></g><g fill="#ffffff" fill-opacity="1"><g transform="translate(127.23182, 37.853756)"><g><path d="M 8.890625 -11.21875 L 11.6875 -15.75 L 17.21875 -15.75 L 12.21875 -8.09375 L 17.5625 0 L 11.75 0 L 8.890625 -4.9375 L 5.671875 0 L 0.109375 0 L 5.5 -8.0625 L 0.46875 -15.75 L 6.25 -15.75 Z M 8.890625 -11.21875 "/></g></g></g></svg>